<?xml version="1.0" encoding="UTF-8"?>
<svg width="122px" height="45px" viewBox="0 0 122 45" version="1.1" xmlns="http://www.w3.org/2000/svg" xmlns:xlink="http://www.w3.org/1999/xlink">
    <!-- Generator: Sketch 49.3 (51167) - http://www.bohemiancoding.com/sketch -->
    <title>icon/identity-accepted</title>
    <desc>Created with Sketch.</desc>
    <defs></defs>
    <g id="Page-1" stroke="none" stroke-width="1" fill="none" fill-rule="evenodd">
        <g id="05" transform="translate(-536.000000, -147.000000)">
            <g id="icon/id-verified" transform="translate(536.000000, 147.000000)">
                <g id="Group">
                    <g id="icon/identity-verfied">
                        <path d="M44.7288833,26.0032979 C42.3073984,22.3834904 38.1820462,20 33.5,20 C29.5322409,20 25.9642754,21.7117195 23.4942679,24.436994 C23.0033458,24.4138294 22.4964341,24.4022471 21.9735328,24.4022471 C13.4234034,24.4022471 9.42190077,27.4989608 9.96902509,33.6923884 L20.0013429,33.6923884 C20.0656332,38.2949208 22.4331523,42.3406199 26.0032979,44.7288833 C24.8617091,44.907358 23.6916734,45 22.5,45 C10.0735931,45 0,34.9264069 0,22.5 C0,10.0735931 10.0735931,0 22.5,0 C34.9264069,0 45,10.0735931 45,22.5 C45,23.6916734 44.907358,24.8617091 44.7288833,26.0032979 Z M21.5,21 C25.0898509,21 28,18.0898509 28,14.5 C28,10.9101491 25.0898509,8 21.5,8 C17.9101491,8 15,10.9101491 15,14.5 C15,18.0898509 17.9101491,21 21.5,21 Z" id="Combined-Shape" fill="#71D585"></path>
                        <g id="Group" stroke-width="1" transform="translate(22.000000, 23.000000)">
                            <circle id="Oval-2" fill="#5ABC77" cx="10.5" cy="10.5" r="10.5"></circle>
                            <polyline id="Path-2" stroke="#FFFFFF" points="3.68686066 9.0192445 8.82908265 13.9731213 16.5946344 6.20756957"></polyline>
                        </g>
                    </g>
                    <path d="M71.868,21.92 C70.944,23.796 68.844,25.168 66.156,25.168 C62.124,25.168 59.324,22.256 59.324,18.224 C59.324,14.416 62.068,11.336 66.352,11.336 C71.364,11.336 73.632,14.92 73.632,21.024 C73.632,27.38 71.588,32.364 65.736,32.364 C62.096,32.364 60.052,30.18 59.66,27.324 L61.536,27.324 C61.872,29.704 63.636,30.824 66.016,30.824 C69.572,30.824 71.868,27.744 71.868,21.92 Z M66.352,12.876 C63.3,12.876 61.172,15.032 61.172,18.14 C61.172,21.444 63.216,23.628 66.352,23.628 C69.488,23.628 71.532,21.444 71.532,18.14 C71.532,15.032 69.376,12.876 66.352,12.876 Z M90.852,21.92 C89.928,23.796 87.828,25.168 85.14,25.168 C81.108,25.168 78.308,22.256 78.308,18.224 C78.308,14.416 81.052,11.336 85.336,11.336 C90.348,11.336 92.616,14.92 92.616,21.024 C92.616,27.38 90.572,32.364 84.72,32.364 C81.08,32.364 79.036,30.18 78.644,27.324 L80.52,27.324 C80.856,29.704 82.62,30.824 85,30.824 C88.556,30.824 90.852,27.744 90.852,21.92 Z M85.336,12.876 C82.284,12.876 80.156,15.032 80.156,18.14 C80.156,21.444 82.2,23.628 85.336,23.628 C88.472,23.628 90.516,21.444 90.516,18.14 C90.516,15.032 88.36,12.876 85.336,12.876 Z M96.172,17.412 C96.172,13.8 97.572,11.504 100.624,11.504 C103.676,11.504 105.076,13.8 105.076,17.412 C105.076,21.024 103.676,23.32 100.624,23.32 C97.572,23.32 96.172,21.024 96.172,17.412 Z M101.128,32 L115.128,11.7 L117.06,11.7 L103.06,32 L101.128,32 Z M103.48,17.412 C103.48,14.248 102.388,12.736 100.624,12.736 C98.86,12.736 97.74,14.248 97.74,17.412 C97.74,20.548 98.86,22.088 100.624,22.088 C102.388,22.088 103.48,20.548 103.48,17.412 Z M113.112,26.288 C113.112,22.676 114.512,20.38 117.564,20.38 C120.616,20.38 122.016,22.676 122.016,26.288 C122.016,29.9 120.616,32.196 117.564,32.196 C114.512,32.196 113.112,29.9 113.112,26.288 Z M120.42,26.288 C120.42,23.124 119.328,21.612 117.564,21.612 C115.8,21.612 114.68,23.124 114.68,26.288 C114.68,29.424 115.8,30.964 117.564,30.964 C119.328,30.964 120.42,29.424 120.42,26.288 Z" id="99%" fill="#000000"></path>
                </g>
            </g>
        </g>
    </g>
</svg>