<?xml version="1.0" encoding="UTF-8"?>
<svg width="104px" height="45px" viewBox="0 0 104 45" version="1.1" xmlns="http://www.w3.org/2000/svg" xmlns:xlink="http://www.w3.org/1999/xlink">
    <!-- Generator: Sketch 49.3 (51167) - http://www.bohemiancoding.com/sketch -->
    <title>icon/identity-rejected</title>
    <desc>Created with Sketch.</desc>
    <defs></defs>
    <g id="Page-1" stroke="none" stroke-width="1" fill="none" fill-rule="evenodd">
        <g id="icon/identity-rejected">
            <g id="icon/identity-verfied" stroke-width="1" fill="#BC5A5A">
                <path d="M44.7288833,26.0032979 C42.3073984,22.3834904 38.1820462,20 33.5,20 C29.5322409,20 25.9642754,21.7117195 23.4942679,24.436994 C23.0033458,24.4138294 22.4964341,24.4022471 21.9735328,24.4022471 C13.4234034,24.4022471 9.42190077,27.4989608 9.96902509,33.6923884 L20.0013429,33.6923884 C20.0656332,38.2949208 22.4331523,42.3406199 26.0032979,44.7288833 C24.8617091,44.907358 23.6916734,45 22.5,45 C10.0735931,45 0,34.9264069 0,22.5 C0,10.0735931 10.0735931,0 22.5,0 C34.9264069,0 45,10.0735931 45,22.5 C45,23.6916734 44.907358,24.8617091 44.7288833,26.0032979 Z M21.5,21 C25.0898509,21 28,18.0898509 28,14.5 C28,10.9101491 25.0898509,8 21.5,8 C17.9101491,8 15,10.9101491 15,14.5 C15,18.0898509 17.9101491,21 21.5,21 Z" id="Combined-Shape"></path>
                <g id="Group" transform="translate(22.000000, 23.000000)">
                    <path d="M10.5,21 C4.70101013,21 0,16.2989899 0,10.5 C0,4.70101013 4.70101013,0 10.5,0 C16.2989899,0 21,4.70101013 21,10.5 C21,16.2989899 16.2989899,21 10.5,21 Z M5,10 L5,11 L16,11 L16,10 L5,10 Z" id="Combined-Shape"></path>
                </g>
            </g>
            <path d="M58.68,21.836 C58.68,15.396 61.144,11.336 66.492,11.336 C71.812,11.336 74.276,15.396 74.276,21.836 C74.276,28.304 71.812,32.364 66.492,32.364 C61.144,32.364 58.68,28.304 58.68,21.836 Z M72.456,21.836 C72.456,15.76 70.132,12.876 66.492,12.876 C62.824,12.876 60.528,15.76 60.528,21.836 C60.528,27.94 62.824,30.824 66.492,30.824 C70.132,30.824 72.456,27.94 72.456,21.836 Z M77.188,17.412 C77.188,13.8 78.588,11.504 81.64,11.504 C84.692,11.504 86.092,13.8 86.092,17.412 C86.092,21.024 84.692,23.32 81.64,23.32 C78.588,23.32 77.188,21.024 77.188,17.412 Z M82.144,32 L96.144,11.7 L98.076,11.7 L84.076,32 L82.144,32 Z M84.496,17.412 C84.496,14.248 83.404,12.736 81.64,12.736 C79.876,12.736 78.756,14.248 78.756,17.412 C78.756,20.548 79.876,22.088 81.64,22.088 C83.404,22.088 84.496,20.548 84.496,17.412 Z M94.128,26.288 C94.128,22.676 95.528,20.38 98.58,20.38 C101.632,20.38 103.032,22.676 103.032,26.288 C103.032,29.9 101.632,32.196 98.58,32.196 C95.528,32.196 94.128,29.9 94.128,26.288 Z M101.436,26.288 C101.436,23.124 100.344,21.612 98.58,21.612 C96.816,21.612 95.696,23.124 95.696,26.288 C95.696,29.424 96.816,30.964 98.58,30.964 C100.344,30.964 101.436,29.424 101.436,26.288 Z" id="0%" fill="#000000"></path>
        </g>
    </g>
</svg>